<svg xmlns="http://www.w3.org/2000/svg" width="86.402" height="86.341" viewBox="0 0 86.402 86.341"><defs><style>.a,.b{fill:#3ca855;}.a{stroke:#fff;stroke-miterlimit:10;stroke-width:0.25px;}</style></defs><g transform="translate(0.136 0.142)"><path class="a" d="M81.522,78.265a6.531,6.531,0,0,1,0-6.755A30.7,30.7,0,0,0,61.054,25.252a30.7,30.7,0,0,0-9.17-16.8A30.737,30.737,0,0,0,.1,33.122a30.688,30.688,0,0,0,4.53,13.806,6.531,6.531,0,0,1,0,6.755L1.78,58.431a2.047,2.047,0,0,0,1.76,3.091H25.318a31.419,31.419,0,0,0,30.7,24.562H82.547a2.047,2.047,0,0,0,1.76-3.091ZM7.12,57.428,8.1,55.77a10.623,10.623,0,0,0,0-10.991A26.609,26.609,0,1,1,57.369,31.208a27.12,27.12,0,0,1-27.386,26.22ZM56.1,81.99A27.328,27.328,0,0,1,29.492,61.522h.491A31.234,31.234,0,0,0,61.463,31.27V29.489A26.608,26.608,0,0,1,78.042,69.34a10.623,10.623,0,0,0,0,10.991l.983,1.658H56.1Z" transform="translate(0 -0.01)"/><path class="b" d="M131.46,112.994h0c0,2.047-1.924,3.357-6.857,3.562l-.2.2.9,6.345h4.094l.43-2.395c4.176-.737,7.553-2.784,7.553-7.8h0c0-5.2-3.827-8.187-9.477-8.187a12.282,12.282,0,0,0-9.579,4.237l3.6,3.95a8.062,8.062,0,0,1,5.874-2.7C130.13,110.21,131.46,111.233,131.46,112.994Z" transform="translate(-98.428 -87.116)"/><rect class="b" width="6.345" height="6.263" transform="translate(25.582 39.091)"/></g></svg>