<svg xmlns="http://www.w3.org/2000/svg" width="69.746" height="97.775" viewBox="0 0 69.746 97.775"><defs><style>.a{fill:#3ca855;}</style></defs><g transform="translate(-73.135 0)"><path class="a" d="M73.46,44.5a5.1,5.1,0,0,0,1.476,5.68c3.11,3.112,9.5,14.346,12.671,22.262,2.16,5.4,6.9,10.7,10.5,14.194a8.088,8.088,0,0,1,2.414,5.782v.6a4.887,4.887,0,0,0,4.888,4.887h26.065a4.887,4.887,0,0,0,4.888-4.887v-5A1.494,1.494,0,0,1,136.8,86.9c6.013-5.5,6.082-14.677,6.082-15.065V46.046a6.69,6.69,0,0,0-6.042-6.775,6.511,6.511,0,0,0-3.732.887V37.625a6.479,6.479,0,0,0-9.844-5.573,6.44,6.44,0,0,0-9.7-4.925v-2.7a12.869,12.869,0,0,0,6.517-11.24,13.033,13.033,0,0,0-26.066,0,12.87,12.87,0,0,0,6.516,11.24V50.657a18.029,18.029,0,0,1-.776,5.681,1.647,1.647,0,0,1-1.175,1.095,1.57,1.57,0,0,1-1.466-.385,23.151,23.151,0,0,1-3.368-4.037C90.912,48.783,83.8,40.883,79.345,40.883A6.382,6.382,0,0,0,73.46,44.5ZM97.265,13.188a9.774,9.774,0,1,1,19.549,0,9.676,9.676,0,0,1-3.258,7.3v-7.3a6.516,6.516,0,0,0-13.032,0v7.3A9.678,9.678,0,0,1,97.265,13.188ZM91.023,54.82a26.463,26.463,0,0,0,3.849,4.6,4.82,4.82,0,0,0,4.493,1.172,4.91,4.91,0,0,0,3.47-3.213,21.218,21.218,0,0,0,.946-6.724V13.188a3.258,3.258,0,0,1,6.516,0V47.4a1.629,1.629,0,1,0,3.258,0V32.738a3.258,3.258,0,0,1,6.517,0V47.4a1.629,1.629,0,1,0,3.258,0V37.625a3.258,3.258,0,0,1,6.516,0v11.4a1.629,1.629,0,0,0,3.258,0V45.77a3.23,3.23,0,0,1,.956-2.3,3.3,3.3,0,0,1,2.542-.948,3.469,3.469,0,0,1,3.019,3.525v25.79c0,.08-.083,8.146-5.024,12.662a4.754,4.754,0,0,0-1.492,3.512v5a1.629,1.629,0,0,1-1.63,1.629H105.411a1.629,1.629,0,0,1-1.63-1.629v-.6a11.37,11.37,0,0,0-3.4-8.12c-2.76-2.679-7.7-7.944-9.745-13.068-3.353-8.377-9.986-19.945-13.394-23.353-.776-.775-1.035-1.492-.771-2.131a3.213,3.213,0,0,1,2.877-1.6C81.559,44.141,87.562,49.63,91.023,54.82Z" transform="translate(0 -0.126)"/><path class="a" d="M388.8,311.766a1.629,1.629,0,0,0,1.629-1.629v-9.774a1.629,1.629,0,0,0-3.258,0v9.774A1.629,1.629,0,0,0,388.8,311.766Z" transform="translate(-254.066 -241.685)"/><path class="a" d="M380.27,390.652a1.626,1.626,0,0,0,1.151-.477,6.613,6.613,0,0,0,2.107-4.41,1.609,1.609,0,0,0-1.59-1.606,1.639,1.639,0,0,0-1.668,1.568,3.584,3.584,0,0,1-1.152,2.144,1.629,1.629,0,0,0,1.152,2.781Z" transform="translate(-247.165 -310.797)"/><path class="a" d="M252.307,464.075h1.629a1.629,1.629,0,1,0,0-3.258h-1.629a1.629,1.629,0,1,0,0,3.258Z" transform="translate(-143.638 -372.816)"/><path class="a" d="M154.827,26.974a1.629,1.629,0,0,0,1.188-2.745A16.251,16.251,0,0,1,155.3,2.7,1.629,1.629,0,1,0,152.791.622a19.511,19.511,0,0,0,.849,25.839A1.629,1.629,0,0,0,154.827,26.974Z" transform="translate(-60.82 0)"/><path class="a" d="M317.4,22.658a1.629,1.629,0,0,0,2.192-.707A19.482,19.482,0,0,0,317.264.622a1.629,1.629,0,1,0-2.51,2.075,16.227,16.227,0,0,1,1.94,17.769A1.628,1.628,0,0,0,317.4,22.658Z" transform="translate(-195.155 0)"/></g></svg>