<svg xmlns="http://www.w3.org/2000/svg" width="97.668" height="97.668" viewBox="0 0 97.668 97.668"><defs><style>.a{fill:#3ca855;}</style></defs><path class="a" d="M34.244,219.215,27.3,217.692v-1.419a10.331,10.331,0,0,0,4.026-8.182v-6.75a10.345,10.345,0,0,0-20.69,0v6.75a10.333,10.333,0,0,0,4.074,8.22v1.379l-6.983,1.527A9.886,9.886,0,0,0,0,228.82v21.5a1.908,1.908,0,0,0,1.908,1.908H40.059a1.908,1.908,0,0,0,1.908-1.908v-3.529a1.908,1.908,0,1,0-3.815,0v1.621H3.815v-19.6a6.049,6.049,0,0,1,4.729-5.875l8.484-1.855a1.907,1.907,0,0,0,1.5-1.864v-1.087a10.316,10.316,0,0,0,4.96-.011v1.1a1.908,1.908,0,0,0,1.5,1.863l8.44,1.851a6.05,6.05,0,0,1,4.725,5.874v2.369a1.908,1.908,0,1,0,3.815,0v-2.369A9.888,9.888,0,0,0,34.244,219.215Zm-19.79-11.123v-6.75a6.53,6.53,0,0,1,13.059,0v6.75a6.53,6.53,0,1,1-13.059,0Z" transform="translate(0 -154.563)"/><path class="a" d="M87.029,53.529V50.741h4.916a5.729,5.729,0,0,0,5.723-5.723V26.706a5.729,5.729,0,0,0-5.723-5.723H83.688a1.908,1.908,0,0,0,0,3.815h8.257a1.91,1.91,0,0,1,1.908,1.908V45.019a1.91,1.91,0,0,1-1.908,1.908H87.029v-.147a10.345,10.345,0,1,0-20.69,0v.147H59.9a1.908,1.908,0,0,0-1.908,1.908v3.025l-4.374-4.374a1.909,1.909,0,0,0-1.349-.559H49.215a1.91,1.91,0,0,1-1.908-1.908V26.706A1.91,1.91,0,0,1,49.215,24.8H68.247a1.908,1.908,0,1,0,0-3.815H64.794V5.723A5.729,5.729,0,0,0,59.071,0H5.723A5.729,5.729,0,0,0,0,5.723v20.03a5.729,5.729,0,0,0,5.723,5.723H30.489v4.069a1.908,1.908,0,0,0,3.256,1.349l5.418-5.418h4.328V45.019a5.729,5.729,0,0,0,5.723,5.723h2.262l7.072,7.072a1.908,1.908,0,0,0,3.256-1.349V50.741h4.534v2.787a10.333,10.333,0,0,0,4.074,8.22v1.379L63.43,64.655a9.887,9.887,0,0,0-7.729,9.6v21.5a1.908,1.908,0,0,0,1.908,1.908H95.76a1.908,1.908,0,0,0,1.908-1.908V74.252a9.888,9.888,0,0,0-7.722-9.6L83,63.129V61.711A10.331,10.331,0,0,0,87.029,53.529ZM38.374,27.66a1.908,1.908,0,0,0-1.349.559L34.3,30.939V29.567A1.908,1.908,0,0,0,32.4,27.66H5.723a1.91,1.91,0,0,1-1.908-1.908V5.723A1.91,1.91,0,0,1,5.723,3.815H59.071a1.91,1.91,0,0,1,1.908,1.908V20.983H49.215a5.729,5.729,0,0,0-5.723,5.723v.954ZM74.229,63.577a10.316,10.316,0,0,0,4.96-.011v.759l-2.48,6.758-2.48-6.758Zm2.456-23.328a6.537,6.537,0,0,1,6.53,6.53v1.447H80.4a14.409,14.409,0,0,1-9.8-3.811A6.539,6.539,0,0,1,76.684,40.249Zm-6.53,8.667A18.2,18.2,0,0,0,80.4,52.041h2.813v1.487a6.53,6.53,0,0,1-13.059,0V48.916ZM89.128,68.378a6.05,6.05,0,0,1,4.725,5.874v19.6H59.516v-19.6a6.049,6.049,0,0,1,4.729-5.875l6.858-1.5,3.814,10.4a1.908,1.908,0,0,0,3.582,0l3.814-10.394Z"/><path class="a" d="M390.62,113.815a1.909,1.909,0,1,0-1.351-.559A1.917,1.917,0,0,0,390.62,113.815Z" transform="translate(-314.561 -89.017)"/><path class="a" d="M201.908,433.5a1.909,1.909,0,1,0,1.348.559A1.921,1.921,0,0,0,201.908,433.5Z" transform="translate(-161.849 -350.807)"/><path class="a" d="M76.021,96.667H47.408a1.908,1.908,0,0,0,0,3.815H76.021a1.908,1.908,0,0,0,0-3.815Z" transform="translate(-36.821 -78.227)"/><path class="a" d="M47.408,52.148H83.127a1.908,1.908,0,1,0,0-3.815H47.408a1.908,1.908,0,0,0,0,3.815Z" transform="translate(-36.821 -39.113)"/><path class="a" d="M274.658,52.145a1.909,1.909,0,1,0-1.349-.559A1.913,1.913,0,0,0,274.658,52.145Z" transform="translate(-220.721 -39.111)"/></svg>